<svg xmlns="http://www.w3.org/2000/svg" xmlns:xlink="http://www.w3.org/1999/xlink" width="500" zoomAndPan="magnify" viewBox="0 0 375 374.999991" height="500" preserveAspectRatio="xMidYMid meet" version="1.0"><defs><g/><clipPath id="d02b7a5619"><path d="M 245.179688 177.640625 L 262.265625 177.640625 L 262.265625 197.140625 L 245.179688 197.140625 Z M 245.179688 177.640625 " clip-rule="nonzero"/></clipPath></defs><rect x="-37.5" width="450" fill="#ffffff" y="-37.499999" height="449.999989" fill-opacity="1"/><rect x="-37.5" width="450" fill="#ffffff" y="-37.499999" height="449.999989" fill-opacity="1"/><g clip-path="url(#d02b7a5619)"><path fill="#000000" d="M 245.964844 191.015625 C 246.25 190.984375 246.539062 190.945312 246.824219 190.910156 C 247.402344 190.835938 247.992188 190.777344 248.574219 190.855469 C 248.792969 190.886719 249 190.96875 249.058594 191.199219 C 249.132812 191.480469 248.964844 191.742188 248.960938 192.015625 C 249.140625 192.027344 249.300781 192.109375 249.378906 192.316406 C 249.503906 192.660156 249.523438 193.0625 249.5 193.425781 C 249.546875 193.433594 249.597656 193.445312 249.648438 193.464844 C 250.105469 193.625 250.558594 193.808594 251.003906 194.007812 C 251.121094 193.632812 251.183594 193.246094 251.183594 192.851562 C 251.1875 192.421875 251.09375 192.019531 251.015625 191.601562 C 250.945312 191.222656 250.945312 190.859375 251.070312 190.492188 C 251.1875 190.152344 251.371094 189.84375 251.558594 189.542969 C 251.535156 189.503906 251.511719 189.457031 251.5 189.402344 C 251.472656 189.292969 251.476562 189.179688 251.464844 189.070312 C 251.449219 188.925781 251.425781 188.785156 251.390625 188.640625 C 251.273438 188.128906 251.054688 187.644531 250.871094 187.148438 C 250.695312 186.65625 250.550781 186.140625 250.589844 185.613281 C 250.613281 185.34375 250.679688 185.078125 250.792969 184.828125 C 250.785156 184.816406 250.78125 184.800781 250.789062 184.785156 C 251.042969 183.734375 250.207031 182.835938 249.785156 181.957031 C 249.574219 181.527344 249.414062 181.074219 249.304688 180.609375 C 249.25 180.382812 249.207031 180.152344 249.175781 179.917969 C 249.152344 179.714844 249.085938 179.441406 249.164062 179.242188 C 249.179688 179.195312 249.214844 179.148438 249.253906 179.113281 C 249.253906 179.082031 249.25 179.046875 249.25 179.015625 C 249.25 178.257812 249.867188 177.640625 250.628906 177.640625 C 251.386719 177.640625 252.003906 178.257812 252.003906 179.015625 C 252.003906 179.773438 251.386719 180.390625 250.628906 180.390625 C 250.402344 180.390625 250.191406 180.335938 250.007812 180.242188 C 249.933594 180.378906 249.992188 180.535156 250.058594 180.671875 C 250.128906 180.804688 250.203125 180.9375 250.277344 181.066406 C 250.417969 181.3125 250.566406 181.546875 250.726562 181.78125 C 250.886719 181.628906 251.085938 181.527344 251.320312 181.496094 C 251.710938 181.441406 252.09375 181.585938 252.398438 181.828125 C 252.492188 181.902344 252.574219 181.988281 252.664062 182.066406 C 252.765625 182.160156 252.878906 182.199219 252.988281 182.273438 C 253.105469 182.359375 253.136719 182.554688 252.964844 182.59375 C 253 182.902344 253.375 183.1875 253.132812 183.492188 C 253.199219 183.515625 253.265625 183.550781 253.328125 183.597656 C 253.4375 183.679688 253.609375 183.808594 253.644531 183.957031 C 253.800781 184.03125 253.953125 184.113281 254.101562 184.183594 C 255.003906 184.617188 255.917969 185.03125 256.84375 185.414062 C 257.882812 185.84375 258.9375 186.238281 260.003906 186.597656 C 260.65625 186.671875 261.332031 186.628906 261.980469 186.558594 C 262.089844 186.546875 262.242188 186.496094 262.34375 186.570312 C 262.414062 186.621094 262.429688 186.710938 262.375 186.78125 C 262.3125 186.863281 262.1875 186.90625 262.097656 186.945312 C 262 186.984375 261.902344 187.011719 261.800781 187.027344 C 261.859375 187.066406 261.914062 187.101562 261.96875 187.140625 C 262.054688 187.203125 262.167969 187.285156 262.136719 187.410156 C 262.109375 187.507812 262 187.539062 261.910156 187.519531 C 261.824219 187.5 261.742188 187.464844 261.65625 187.425781 C 261.71875 187.511719 261.78125 187.621094 261.730469 187.714844 C 261.671875 187.835938 261.527344 187.800781 261.441406 187.734375 C 261.292969 187.617188 261.15625 187.484375 261.019531 187.351562 C 260.871094 187.4375 260.65625 187.421875 260.5 187.417969 C 260.386719 187.414062 260.269531 187.402344 260.164062 187.367188 C 260.050781 187.328125 259.945312 187.25 259.828125 187.242188 C 259.820312 187.242188 259.816406 187.246094 259.808594 187.242188 C 259.804688 187.242188 259.796875 187.242188 259.792969 187.242188 C 259.789062 187.242188 259.789062 187.242188 259.785156 187.242188 C 259.777344 187.242188 259.769531 187.242188 259.761719 187.238281 C 257.796875 187.046875 255.867188 186.53125 254.070312 185.707031 C 254.214844 186.285156 254.332031 186.867188 254.425781 187.453125 C 254.519531 188.058594 254.609375 188.671875 254.605469 189.285156 C 254.601562 189.488281 254.621094 189.769531 254.460938 189.925781 C 254.464844 189.929688 254.46875 189.9375 254.46875 189.941406 C 254.816406 190.773438 254.867188 191.683594 254.816406 192.574219 C 254.789062 193.054688 254.742188 193.53125 254.691406 194.011719 C 254.648438 194.453125 254.621094 194.902344 254.539062 195.339844 C 254.511719 195.480469 254.460938 195.632812 254.34375 195.71875 C 254.28125 195.765625 254.210938 195.789062 254.136719 195.796875 C 254.164062 196.121094 254.167969 196.464844 253.988281 196.75 C 253.808594 197.035156 253.511719 197.140625 253.1875 197.085938 C 252.871094 197.035156 252.578125 196.902344 252.304688 196.730469 C 252.15625 196.90625 251.921875 196.972656 251.695312 196.9375 C 251.371094 196.886719 251.109375 196.640625 250.878906 196.425781 C 250.351562 195.9375 249.890625 195.382812 249.503906 194.777344 C 249.378906 194.714844 249.257812 194.648438 249.132812 194.582031 C 249.058594 194.539062 248.984375 194.492188 248.921875 194.429688 C 248.824219 194.5625 248.597656 194.539062 248.449219 194.449219 C 248.152344 194.277344 247.875 194.121094 247.53125 194.050781 C 247.167969 193.972656 246.8125 194.046875 246.449219 194.011719 C 246.203125 193.988281 245.949219 193.886719 245.816406 193.664062 C 245.671875 193.429688 245.769531 193.15625 245.949219 192.96875 C 246.152344 192.765625 246.429688 192.652344 246.703125 192.585938 C 246.84375 192.550781 246.992188 192.527344 247.136719 192.503906 C 246.996094 192.304688 246.808594 192.144531 246.585938 192.042969 C 246.332031 191.925781 246.074219 191.9375 245.804688 191.90625 C 245.613281 191.882812 245.398438 191.816406 245.285156 191.644531 C 245.1875 191.496094 245.183594 191.28125 245.324219 191.15625 C 245.484375 191.011719 245.761719 191.035156 245.964844 191.015625 Z M 245.964844 191.015625 " fill-opacity="1" fill-rule="nonzero"/></g><g fill="#000000" fill-opacity="1"><g transform="translate(38.214846, 209.624986)"><g><path d="M 23.3125 0.6875 C 17.476562 0.6875 12.890625 -0.921875 9.546875 -4.140625 C 6.203125 -7.367188 4.53125 -12.1875 4.53125 -18.59375 L 4.53125 -43.40625 L 14.078125 -43.40625 L 14.078125 -18.84375 C 14.078125 -15.289062 14.898438 -12.613281 16.546875 -10.8125 C 18.203125 -9.019531 20.5 -8.125 23.4375 -8.125 C 26.375 -8.125 28.664062 -8.988281 30.3125 -10.71875 C 31.96875 -12.457031 32.796875 -15.0625 32.796875 -18.53125 L 32.796875 -43.40625 L 42.34375 -43.40625 L 42.34375 -18.90625 C 42.34375 -15.601562 41.898438 -12.734375 41.015625 -10.296875 C 40.128906 -7.859375 38.859375 -5.820312 37.203125 -4.1875 C 35.546875 -2.550781 33.539062 -1.328125 31.1875 -0.515625 C 28.832031 0.285156 26.207031 0.6875 23.3125 0.6875 Z M 23.3125 0.6875 "/></g></g></g><g fill="#000000" fill-opacity="1"><g transform="translate(85.080882, 209.624986)"><g><path d="M 5.203125 -43.40625 L 22.9375 -43.40625 C 25.539062 -43.40625 27.863281 -43.039062 29.90625 -42.3125 C 31.957031 -41.59375 33.695312 -40.570312 35.125 -39.25 C 36.550781 -37.925781 37.644531 -36.34375 38.40625 -34.5 C 39.175781 -32.664062 39.5625 -30.628906 39.5625 -28.390625 L 39.5625 -28.265625 C 39.5625 -25.742188 39.101562 -23.53125 38.1875 -21.625 C 37.28125 -19.726562 36.03125 -18.140625 34.4375 -16.859375 C 32.84375 -15.578125 30.984375 -14.613281 28.859375 -13.96875 C 26.734375 -13.332031 24.453125 -13.015625 22.015625 -13.015625 L 14.75 -13.015625 L 14.75 0 L 5.203125 0 Z M 22.3125 -21.515625 C 24.71875 -21.515625 26.582031 -22.144531 27.90625 -23.40625 C 29.226562 -24.664062 29.890625 -26.226562 29.890625 -28.09375 L 29.890625 -28.203125 C 29.890625 -30.359375 29.195312 -31.992188 27.8125 -33.109375 C 26.425781 -34.222656 24.535156 -34.78125 22.140625 -34.78125 L 14.75 -34.78125 L 14.75 -21.515625 Z M 22.3125 -21.515625 "/></g></g></g><g fill="#000000" fill-opacity="1"><g transform="translate(126.491611, 209.624986)"><g/></g></g><g fill="#000000" fill-opacity="1"><g transform="translate(145.089243, 209.624986)"><g><path d="M 20.640625 0.625 C 17.335938 0.625 14.09375 0.0546875 10.90625 -1.078125 C 7.726562 -2.222656 4.835938 -3.972656 2.234375 -6.328125 L 7.875 -13.078125 C 9.851562 -11.460938 11.882812 -10.179688 13.96875 -9.234375 C 16.0625 -8.285156 18.347656 -7.8125 20.828125 -7.8125 C 22.816406 -7.8125 24.359375 -8.171875 25.453125 -8.890625 C 26.546875 -9.617188 27.09375 -10.625 27.09375 -11.90625 L 27.09375 -12.03125 C 27.09375 -12.644531 26.976562 -13.191406 26.75 -13.671875 C 26.519531 -14.148438 26.082031 -14.59375 25.4375 -15 C 24.800781 -15.414062 23.914062 -15.828125 22.78125 -16.234375 C 21.644531 -16.648438 20.171875 -17.085938 18.359375 -17.546875 C 16.160156 -18.085938 14.171875 -18.6875 12.390625 -19.34375 C 10.617188 -20.007812 9.113281 -20.828125 7.875 -21.796875 C 6.632812 -22.765625 5.671875 -23.972656 4.984375 -25.421875 C 4.304688 -26.867188 3.96875 -28.664062 3.96875 -30.8125 L 3.96875 -30.9375 C 3.96875 -32.914062 4.335938 -34.703125 5.078125 -36.296875 C 5.828125 -37.890625 6.875 -39.265625 8.21875 -40.421875 C 9.5625 -41.578125 11.160156 -42.460938 13.015625 -43.078125 C 14.878906 -43.703125 16.925781 -44.015625 19.15625 -44.015625 C 22.34375 -44.015625 25.269531 -43.539062 27.9375 -42.59375 C 30.601562 -41.644531 33.050781 -40.28125 35.28125 -38.5 L 30.3125 -31.3125 C 28.375 -32.632812 26.472656 -33.675781 24.609375 -34.4375 C 22.753906 -35.207031 20.894531 -35.59375 19.03125 -35.59375 C 17.175781 -35.59375 15.78125 -35.226562 14.84375 -34.5 C 13.914062 -33.78125 13.453125 -32.882812 13.453125 -31.8125 L 13.453125 -31.6875 C 13.453125 -30.976562 13.585938 -30.363281 13.859375 -29.84375 C 14.128906 -29.332031 14.613281 -28.867188 15.3125 -28.453125 C 16.019531 -28.046875 16.984375 -27.65625 18.203125 -27.28125 C 19.421875 -26.90625 20.957031 -26.472656 22.8125 -25.984375 C 25.007812 -25.398438 26.960938 -24.742188 28.671875 -24.015625 C 30.390625 -23.296875 31.835938 -22.429688 33.015625 -21.421875 C 34.191406 -20.410156 35.078125 -19.222656 35.671875 -17.859375 C 36.273438 -16.492188 36.578125 -14.859375 36.578125 -12.953125 L 36.578125 -12.828125 C 36.578125 -10.679688 36.179688 -8.769531 35.390625 -7.09375 C 34.609375 -5.425781 33.515625 -4.019531 32.109375 -2.875 C 30.710938 -1.738281 29.039062 -0.867188 27.09375 -0.265625 C 25.15625 0.328125 23.003906 0.625 20.640625 0.625 Z M 20.640625 0.625 "/></g></g></g><g fill="#000000" fill-opacity="1"><g transform="translate(184.76419, 209.624986)"><g><path d="M 5.203125 -43.40625 L 22.9375 -43.40625 C 25.539062 -43.40625 27.863281 -43.039062 29.90625 -42.3125 C 31.957031 -41.59375 33.695312 -40.570312 35.125 -39.25 C 36.550781 -37.925781 37.644531 -36.34375 38.40625 -34.5 C 39.175781 -32.664062 39.5625 -30.628906 39.5625 -28.390625 L 39.5625 -28.265625 C 39.5625 -25.742188 39.101562 -23.53125 38.1875 -21.625 C 37.28125 -19.726562 36.03125 -18.140625 34.4375 -16.859375 C 32.84375 -15.578125 30.984375 -14.613281 28.859375 -13.96875 C 26.734375 -13.332031 24.453125 -13.015625 22.015625 -13.015625 L 14.75 -13.015625 L 14.75 0 L 5.203125 0 Z M 22.3125 -21.515625 C 24.71875 -21.515625 26.582031 -22.144531 27.90625 -23.40625 C 29.226562 -24.664062 29.890625 -26.226562 29.890625 -28.09375 L 29.890625 -28.203125 C 29.890625 -30.359375 29.195312 -31.992188 27.8125 -33.109375 C 26.425781 -34.222656 24.535156 -34.78125 22.140625 -34.78125 L 14.75 -34.78125 L 14.75 -21.515625 Z M 22.3125 -21.515625 "/></g></g></g><g fill="#f8c1e1" fill-opacity="1"><g transform="translate(226.183587, 209.624986)"><g><path d="M 26.28125 0.75 C 22.9375 0.75 19.859375 0.160156 17.046875 -1.015625 C 14.234375 -2.203125 11.804688 -3.796875 9.765625 -5.796875 C 7.722656 -7.796875 6.128906 -10.148438 4.984375 -12.859375 C 3.847656 -15.566406 3.28125 -18.472656 3.28125 -21.578125 L 3.28125 -21.703125 C 3.28125 -24.796875 3.859375 -27.695312 5.015625 -30.40625 C 6.179688 -33.113281 7.785156 -35.488281 9.828125 -37.53125 C 11.867188 -39.582031 14.304688 -41.195312 17.140625 -42.375 C 19.972656 -43.550781 23.0625 -44.140625 26.40625 -44.140625 C 29.757812 -44.140625 32.835938 -43.550781 35.640625 -42.375 C 38.453125 -41.195312 40.878906 -39.601562 42.921875 -37.59375 C 44.972656 -35.59375 46.566406 -33.238281 47.703125 -30.53125 C 48.835938 -27.820312 49.40625 -24.921875 49.40625 -21.828125 L 49.40625 -21.703125 C 49.40625 -18.597656 48.828125 -15.691406 47.671875 -12.984375 C 46.515625 -10.273438 44.910156 -7.898438 42.859375 -5.859375 C 40.816406 -3.816406 38.378906 -2.203125 35.546875 -1.015625 C 32.722656 0.160156 29.632812 0.75 26.28125 0.75 Z M 26.40625 -8.0625 C 28.3125 -8.0625 30.066406 -8.410156 31.671875 -9.109375 C 33.285156 -9.816406 34.660156 -10.789062 35.796875 -12.03125 C 36.941406 -13.269531 37.832031 -14.703125 38.46875 -16.328125 C 39.113281 -17.960938 39.4375 -19.710938 39.4375 -21.578125 L 39.4375 -21.703125 C 39.4375 -23.554688 39.113281 -25.3125 38.46875 -26.96875 C 37.832031 -28.625 36.921875 -30.070312 35.734375 -31.3125 C 34.554688 -32.550781 33.160156 -33.53125 31.546875 -34.25 C 29.941406 -34.976562 28.1875 -35.34375 26.28125 -35.34375 C 24.34375 -35.34375 22.578125 -34.988281 20.984375 -34.28125 C 19.390625 -33.582031 18.023438 -32.613281 16.890625 -31.375 C 15.753906 -30.132812 14.863281 -28.695312 14.21875 -27.0625 C 13.582031 -25.425781 13.265625 -23.679688 13.265625 -21.828125 L 13.265625 -21.703125 C 13.265625 -19.835938 13.582031 -18.078125 14.21875 -16.421875 C 14.863281 -14.773438 15.773438 -13.332031 16.953125 -12.09375 C 18.128906 -10.851562 19.515625 -9.867188 21.109375 -9.140625 C 22.703125 -8.421875 24.46875 -8.0625 26.40625 -8.0625 Z M 26.40625 -8.0625 "/></g></g></g><g fill="#000000" fill-opacity="1"><g transform="translate(278.882799, 209.624986)"><g><path d="M 15.3125 -34.59375 L 2.109375 -34.59375 L 2.109375 -43.40625 L 38.0625 -43.40625 L 38.0625 -34.59375 L 24.859375 -34.59375 L 24.859375 0 L 15.3125 0 Z M 15.3125 -34.59375 "/></g></g></g><g fill="#000000" fill-opacity="1"><g transform="translate(319.053687, 209.624986)"><g><path d="M 3.84375 -9.921875 L 13.890625 -9.921875 L 13.890625 0 L 3.84375 0 Z M 3.84375 -9.921875 "/></g></g></g></svg>